<svg width="137" height="103" viewBox="0 0 137 103" fill="none" xmlns="http://www.w3.org/2000/svg">
<g id="Vector">
<path d="M0.638813 0.635253H11.0498C14.4375 0.635253 16.9783 1.56696 18.6721 3.43037C20.366 5.29378 21.2129 8.02537 21.2129 11.6251V34.1131C21.2129 37.7129 20.366 40.4445 18.6721 42.3079C16.9783 44.1713 14.4375 45.103 11.0498 45.103H0.638813V0.635253ZM10.9258 38.7505C12.0413 38.7505 12.8882 38.4117 13.4666 37.7341C14.0863 37.0565 14.3962 35.9553 14.3962 34.4307V11.3075C14.3962 9.78291 14.0863 8.6818 13.4666 8.00419C12.8882 7.32659 12.0413 6.98779 10.9258 6.98779H7.45552V38.7505H10.9258Z" fill="white"/>
<path d="M25.8142 0.635253H32.6309V45.103H25.8142V0.635253Z" fill="white"/>
<path d="M47.4035 45.7383C44.0984 45.7383 41.5783 44.7854 39.8431 42.8796C38.108 40.9315 37.2404 38.1576 37.2404 34.5578V11.1805C37.2404 7.58069 38.108 4.82793 39.8431 2.92217C41.5783 0.974055 44.0984 0 47.4035 0C50.7085 0 53.2287 0.974055 54.9638 2.92217C56.699 4.82793 57.5666 7.58069 57.5666 11.1805V14.992H51.1217V10.7358C51.1217 7.81362 49.9442 6.35254 47.5894 6.35254C45.2345 6.35254 44.0571 7.81362 44.0571 10.7358V35.066C44.0571 37.9458 45.2345 39.3857 47.5894 39.3857C49.9442 39.3857 51.1217 37.9458 51.1217 35.066V26.363H47.7133V20.0105H57.5666V34.5578C57.5666 38.1576 56.699 40.9315 54.9638 42.8796C53.2287 44.7854 50.7085 45.7383 47.4035 45.7383Z" fill="white"/>
<path d="M61.9432 0.635253H68.7599V45.103H61.9432V0.635253Z" fill="white"/>
<path d="M79.1946 6.98779H72.068V0.635253H93.1379V6.98779H86.0113V45.103H79.1946V6.98779Z" fill="white"/>
<path d="M98.8614 0.635253H108.095L115.16 45.103H108.343L107.103 36.273V36.4H99.3572L98.1178 45.103H91.7968L98.8614 0.635253ZM106.298 30.3651L103.261 8.38535H103.137L100.163 30.3651H106.298Z" fill="white"/>
<path d="M118.467 0.635253H125.283V38.7505H136.5V45.103H118.467V0.635253Z" fill="white"/>
<path d="M11.9446 103C8.22395 103 5.37457 101.914 3.39648 99.7412C1.46549 97.5686 0.5 94.5028 0.5 90.5439V63.3144C0.5 59.3555 1.46549 56.2898 3.39648 54.1172C5.37457 51.9447 8.22395 50.8584 11.9446 50.8584C15.6653 50.8584 18.4912 51.9447 20.4221 54.1172C22.4002 56.2898 23.3893 59.3555 23.3893 63.3144V68.6734H16.0421V62.8075C16.0421 59.6694 14.7469 58.1003 12.1566 58.1003C9.56622 58.1003 8.27105 59.6694 8.27105 62.8075V91.1233C8.27105 94.2132 9.56622 95.7581 12.1566 95.7581C14.7469 95.7581 16.0421 94.2132 16.0421 91.1233V83.3745H23.3893V90.5439C23.3893 94.5028 22.4002 97.5686 20.4221 99.7412C18.4912 101.914 15.6653 103 11.9446 103Z" fill="white"/>
<path d="M39.4093 103C35.5945 103 32.6744 101.89 30.6492 99.6687C28.6241 97.4479 27.6115 94.3097 27.6115 90.2543V63.6041C27.6115 59.5487 28.6241 56.4105 30.6492 54.1897C32.6744 51.9688 35.5945 50.8584 39.4093 50.8584C43.2242 50.8584 46.1442 51.9688 48.1694 54.1897C50.1946 56.4105 51.2072 59.5487 51.2072 63.6041V90.2543C51.2072 94.3097 50.1946 97.4479 48.1694 99.6687C46.1442 101.89 43.2242 103 39.4093 103ZM39.4093 95.7581C42.0939 95.7581 43.4361 94.0925 43.4361 90.7612V63.0972C43.4361 59.7659 42.0939 58.1003 39.4093 58.1003C36.7248 58.1003 35.3825 59.7659 35.3825 63.0972V90.7612C35.3825 94.0925 36.7248 95.7581 39.4093 95.7581Z" fill="white"/>
<path d="M62.3295 51.5826H72.8558L80.9094 102.276H73.1383L71.7254 92.2096V92.3544H62.8947L61.4818 102.276H54.2759L62.3295 51.5826ZM70.807 85.4746L67.3454 60.4177H67.2041L63.8131 85.4746H70.807Z" fill="white"/>
<path d="M95.4917 103C91.771 103 88.9216 101.914 86.9435 99.7412C85.0125 97.5686 84.0471 94.5028 84.0471 90.5439V63.3144C84.0471 59.3555 85.0125 56.2898 86.9435 54.1172C88.9216 51.9447 91.771 50.8584 95.4917 50.8584C99.2124 50.8584 102.038 51.9447 103.969 54.1172C105.947 56.2898 106.936 59.3555 106.936 63.3144V68.6734H99.5891V62.8075C99.5891 59.6694 98.294 58.1003 95.7036 58.1003C93.1133 58.1003 91.8181 59.6694 91.8181 62.8075V91.1233C91.8181 94.2132 93.1133 95.7581 95.7036 95.7581C98.294 95.7581 99.5891 94.2132 99.5891 91.1233V83.3745H106.936V90.5439C106.936 94.5028 105.947 97.5686 103.969 99.7412C102.038 101.914 99.2124 103 95.4917 103Z" fill="white"/>
<path d="M111.586 51.5826H119.357V72.222H127.693V51.5826H135.464V102.276H127.693V79.4639H119.357V102.276H111.586V51.5826Z" fill="white"/>
</g>
</svg>
